<svg width="900" height="1560" viewBox="0 0 900 1560" xmlns="http://www.w3.org/2000/svg" font-family="Arial, Helvetica, sans-serif">
  <defs>
    <marker id="arr-purple" viewBox="0 0 10 10" refX="8" refY="5" markerWidth="6" markerHeight="6" orient="auto-start-reverse"><path d="M2 1L8 5L2 9" fill="none" stroke="#534AB7" stroke-width="1.5" stroke-linecap="round" stroke-linejoin="round"/></marker>
    <marker id="arr-teal" viewBox="0 0 10 10" refX="8" refY="5" markerWidth="6" markerHeight="6" orient="auto-start-reverse"><path d="M2 1L8 5L2 9" fill="none" stroke="#0F6E56" stroke-width="1.5" stroke-linecap="round" stroke-linejoin="round"/></marker>
    <marker id="arr-blue" viewBox="0 0 10 10" refX="8" refY="5" markerWidth="6" markerHeight="6" orient="auto-start-reverse"><path d="M2 1L8 5L2 9" fill="none" stroke="#185FA5" stroke-width="1.5" stroke-linecap="round" stroke-linejoin="round"/></marker>
    <marker id="arr-amber" viewBox="0 0 10 10" refX="8" refY="5" markerWidth="6" markerHeight="6" orient="auto-start-reverse"><path d="M2 1L8 5L2 9" fill="none" stroke="#854F0B" stroke-width="1.5" stroke-linecap="round" stroke-linejoin="round"/></marker>
    <marker id="arr-coral" viewBox="0 0 10 10" refX="8" refY="5" markerWidth="6" markerHeight="6" orient="auto-start-reverse"><path d="M2 1L8 5L2 9" fill="none" stroke="#993C1D" stroke-width="1.5" stroke-linecap="round" stroke-linejoin="round"/></marker>
    <marker id="arr-pink" viewBox="0 0 10 10" refX="8" refY="5" markerWidth="6" markerHeight="6" orient="auto-start-reverse"><path d="M2 1L8 5L2 9" fill="none" stroke="#993556" stroke-width="1.5" stroke-linecap="round" stroke-linejoin="round"/></marker>
    <marker id="arr-green" viewBox="0 0 10 10" refX="8" refY="5" markerWidth="6" markerHeight="6" orient="auto-start-reverse"><path d="M2 1L8 5L2 9" fill="none" stroke="#3B6D11" stroke-width="1.5" stroke-linecap="round" stroke-linejoin="round"/></marker>
    <marker id="arr-gray" viewBox="0 0 10 10" refX="8" refY="5" markerWidth="6" markerHeight="6" orient="auto-start-reverse"><path d="M2 1L8 5L2 9" fill="none" stroke="#888780" stroke-width="1.5" stroke-linecap="round" stroke-linejoin="round"/></marker>
  </defs>

  <rect width="900" height="1560" fill="#FAFAF9"/>

  <text x="450" y="34" text-anchor="middle" font-size="17" font-weight="700" fill="#2C2C2A">GenAI Social Campaign Automation Architecture (POC)</text>
  <text x="450" y="54" text-anchor="middle" font-size="12" fill="#888780">Multi-Scene Video + Audio + TTS Enabled</text>

  <!-- Layer bands -->
  <rect x="30" y="70" width="840" height="108" rx="12" fill="#EEEDFE" stroke="#534AB7" stroke-width="0.8" opacity="0.7"/>
  <text x="50" y="91" font-size="11" font-weight="700" fill="#3C3489">INPUT LAYER</text>
  <rect x="30" y="196" width="840" height="96" rx="12" fill="#E1F5EE" stroke="#0F6E56" stroke-width="0.8" opacity="0.7"/>
  <text x="50" y="216" font-size="11" font-weight="700" fill="#085041">ORCHESTRATION</text>
  <rect x="30" y="310" width="840" height="96" rx="12" fill="#E6F1FB" stroke="#185FA5" stroke-width="0.8" opacity="0.7"/>
  <text x="50" y="330" font-size="11" font-weight="700" fill="#0C447C">ASSET LAYER</text>
  <rect x="30" y="424" width="840" height="170" rx="12" fill="#FAEEDA" stroke="#854F0B" stroke-width="0.8" opacity="0.7"/>
  <text x="50" y="444" font-size="11" font-weight="700" fill="#633806">CREATIVE IMAGE PIPELINE</text>
  <rect x="30" y="612" width="840" height="170" rx="12" fill="#FAECE7" stroke="#993C1D" stroke-width="0.8" opacity="0.7"/>
  <text x="50" y="632" font-size="11" font-weight="700" fill="#712B13">VIDEO / SCENE ENGINE</text>
  <rect x="30" y="800" width="840" height="170" rx="12" fill="#FBEAF0" stroke="#993556" stroke-width="0.8" opacity="0.7"/>
  <text x="50" y="820" font-size="11" font-weight="700" fill="#72243E">AUDIO / TTS ENGINE</text>
  <rect x="30" y="988" width="840" height="88" rx="12" fill="#EAF3DE" stroke="#3B6D11" stroke-width="0.8" opacity="0.7"/>
  <text x="50" y="1008" font-size="11" font-weight="700" fill="#27500A">COMPLIANCE</text>
  <rect x="30" y="1094" width="840" height="88" rx="12" fill="#F1EFE8" stroke="#5F5E5A" stroke-width="0.8" opacity="0.7"/>
  <text x="50" y="1114" font-size="11" font-weight="700" fill="#444441">OPTIONAL / FUTURE</text>
  <rect x="30" y="1200" width="840" height="96" rx="12" fill="#E1F5EE" stroke="#0F6E56" stroke-width="0.8" opacity="0.7"/>
  <text x="50" y="1220" font-size="11" font-weight="700" fill="#085041">OUTPUT LAYER</text>

  <!-- Nodes: Input -->
  <rect x="60" y="85" width="248" height="64" rx="8" fill="#CECBF6" stroke="#534AB7" stroke-width="0.8"/>
  <text x="184" y="111" text-anchor="middle" font-size="13" font-weight="700" fill="#26215C">Campaign Brief JSON</text>
  <text x="184" y="129" text-anchor="middle" font-size="11" fill="#3C3489">Products · regions · scenes · flags</text>
  <rect x="590" y="85" width="248" height="64" rx="8" fill="#CECBF6" stroke="#534AB7" stroke-width="0.8"/>
  <text x="714" y="111" text-anchor="middle" font-size="13" font-weight="700" fill="#26215C">Campaign Runner (main.py)</text>
  <text x="714" y="129" text-anchor="middle" font-size="11" fill="#3C3489">Reads JSON · init logger · start pipeline</text>

  <!-- Nodes: Orchestration -->
  <rect x="210" y="210" width="480" height="64" rx="8" fill="#9FE1CB" stroke="#0F6E56" stroke-width="0.8"/>
  <text x="450" y="237" text-anchor="middle" font-size="13" font-weight="700" fill="#04342C">Campaign Engine</text>
  <text x="450" y="255" text-anchor="middle" font-size="11" fill="#085041">Region normalization · workflow routing · creative loop · output naming</text>

  <!-- Nodes: Asset -->
  <rect x="55" y="328" width="224" height="60" rx="8" fill="#B5D4F4" stroke="#185FA5" stroke-width="0.8"/>
  <text x="167" y="352" text-anchor="middle" font-size="13" font-weight="700" fill="#042C53">Asset Manager</text>
  <text x="167" y="370" text-anchor="middle" font-size="11" fill="#0C447C">Load · validate · generate</text>
  <rect x="338" y="328" width="224" height="60" rx="8" fill="#B5D4F4" stroke="#185FA5" stroke-width="0.8"/>
  <text x="450" y="352" text-anchor="middle" font-size="13" font-weight="700" fill="#042C53">Logo Loader</text>
  <text x="450" y="370" text-anchor="middle" font-size="11" fill="#0C447C">Transparency · contrast</text>
  <rect x="621" y="328" width="224" height="60" rx="8" fill="#B5D4F4" stroke="#185FA5" stroke-width="0.8"/>
  <text x="733" y="352" text-anchor="middle" font-size="13" font-weight="700" fill="#042C53">GenAI Generator (SDXL)</text>
  <text x="733" y="370" text-anchor="middle" font-size="11" fill="#0C447C">Prompt → image · bg removal</text>

  <!-- Nodes: Image Pipeline -->
  <rect x="55" y="458" width="210" height="60" rx="8" fill="#FAC775" stroke="#854F0B" stroke-width="0.8"/>
  <text x="160" y="482" text-anchor="middle" font-size="13" font-weight="700" fill="#412402">Aspect Ratio Engine</text>
  <text x="160" y="500" text-anchor="middle" font-size="11" fill="#633806">1:1 · 9:16 · 16:9</text>
  <rect x="345" y="458" width="210" height="60" rx="8" fill="#FAC775" stroke="#854F0B" stroke-width="0.8"/>
  <text x="450" y="482" text-anchor="middle" font-size="13" font-weight="700" fill="#412402">Background Generator</text>
  <text x="450" y="500" text-anchor="middle" font-size="11" fill="#633806">Gradients · culture-aware</text>
  <rect x="635" y="458" width="210" height="60" rx="8" fill="#FAC775" stroke="#854F0B" stroke-width="0.8"/>
  <text x="740" y="482" text-anchor="middle" font-size="13" font-weight="700" fill="#412402">Creative Composer</text>
  <text x="740" y="500" text-anchor="middle" font-size="11" fill="#633806">Product · logo · text · CTA · glow</text>
  <rect x="270" y="540" width="360" height="44" rx="8" fill="#EF9F27" stroke="#854F0B" stroke-width="0.8"/>
  <text x="450" y="566" text-anchor="middle" font-size="12" font-weight="700" fill="#412402">Image creative output path</text>

  <!-- Nodes: Video -->
  <rect x="55" y="645" width="220" height="60" rx="8" fill="#F5C4B3" stroke="#993C1D" stroke-width="0.8"/>
  <text x="165" y="669" text-anchor="middle" font-size="13" font-weight="700" fill="#4A1B0C">Scene Engine</text>
  <text x="165" y="687" text-anchor="middle" font-size="11" fill="#712B13">Parse JSON · intro/product/CTA</text>
  <rect x="340" y="645" width="220" height="60" rx="8" fill="#F5C4B3" stroke="#993C1D" stroke-width="0.8"/>
  <text x="450" y="669" text-anchor="middle" font-size="13" font-weight="700" fill="#4A1B0C">Video Engine</text>
  <text x="450" y="687" text-anchor="middle" font-size="11" fill="#712B13">Frames · motion · export MP4</text>
  <rect x="625" y="645" width="220" height="60" rx="8" fill="#D3D1C7" stroke="#5F5E5A" stroke-width="0.8" stroke-dasharray="5 3"/>
  <text x="735" y="669" text-anchor="middle" font-size="13" font-weight="700" fill="#2C2C2A">AI Video (optional)</text>
  <text x="735" y="687" text-anchor="middle" font-size="11" fill="#5F5E5A">AnimateDiff · Stable Video</text>
  <rect x="270" y="730" width="360" height="44" rx="8" fill="#F0997B" stroke="#993C1D" stroke-width="0.8"/>
  <text x="450" y="756" text-anchor="middle" font-size="12" font-weight="700" fill="#4A1B0C">Scene → video clip pipeline</text>

  <!-- Nodes: Audio -->
  <rect x="55" y="833" width="220" height="60" rx="8" fill="#F4C0D1" stroke="#993556" stroke-width="0.8"/>
  <text x="165" y="857" text-anchor="middle" font-size="13" font-weight="700" fill="#4B1528">TTS Engine (gTTS)</text>
  <text x="165" y="875" text-anchor="middle" font-size="11" fill="#72243E">Chant audio · language-aware</text>
  <rect x="340" y="833" width="500" height="60" rx="8" fill="#F4C0D1" stroke="#993556" stroke-width="0.8"/>
  <text x="590" y="857" text-anchor="middle" font-size="13" font-weight="700" fill="#4B1528">Audio Engine</text>
  <text x="590" y="875" text-anchor="middle" font-size="11" fill="#72243E">BG music · whoosh · chant overlay · mixing · fade</text>
  <rect x="270" y="920" width="360" height="44" rx="8" fill="#ED93B1" stroke="#993556" stroke-width="0.8"/>
  <text x="450" y="946" text-anchor="middle" font-size="12" font-weight="700" fill="#4B1528">Mixed audio → video attach</text>

  <!-- Compliance -->
  <rect x="270" y="1005" width="360" height="60" rx="8" fill="#C0DD97" stroke="#3B6D11" stroke-width="0.8"/>
  <text x="450" y="1029" text-anchor="middle" font-size="13" font-weight="700" fill="#173404">Compliance Engine</text>
  <text x="450" y="1047" text-anchor="middle" font-size="11" fill="#27500A">Brand validation · text · content safety</text>

  <!-- Optional -->
  <rect x="270" y="1111" width="360" height="60" rx="8" fill="#B4B2A9" stroke="#5F5E5A" stroke-width="0.8" stroke-dasharray="5 3"/>
  <text x="450" y="1135" text-anchor="middle" font-size="13" font-weight="700" fill="#2C2C2A">AI Scene Generation (optional)</text>
  <text x="450" y="1153" text-anchor="middle" font-size="11" fill="#444441">Plug-in scene-level AI models</text>

  <!-- Output -->
  <rect x="210" y="1218" width="480" height="64" rx="8" fill="#5DCAA5" stroke="#0F6E56" stroke-width="0.8"/>
  <text x="450" y="1244" text-anchor="middle" font-size="13" font-weight="700" fill="#04342C">Outputs/</text>
  <text x="450" y="1262" text-anchor="middle" font-size="11" fill="#04342C">PNG creatives · MP4 videos · *_multi.mp4 · TTS temp audio</text>

  <!-- Arrows -->
  <line x1="308" y1="117" x2="588" y2="117" stroke="#534AB7" stroke-width="1.2" marker-end="url(#arr-purple)" fill="none"/>
  <text x="448" y="111" text-anchor="middle" font-size="10" fill="#534AB7">load config</text>
  <line x1="184" y1="149" x2="184" y2="185" stroke="#534AB7" stroke-width="1" fill="none"/>
  <line x1="184" y1="185" x2="330" y2="210" stroke="#534AB7" stroke-width="1" marker-end="url(#arr-purple)" fill="none"/>
  <line x1="714" y1="149" x2="714" y2="185" stroke="#534AB7" stroke-width="1" fill="none"/>
  <line x1="714" y1="185" x2="570" y2="210" stroke="#534AB7" stroke-width="1" marker-end="url(#arr-purple)" fill="none"/>
  <line x1="310" y1="274" x2="200" y2="328" stroke="#0F6E56" stroke-width="1" marker-end="url(#arr-teal)" fill="none"/>
  <line x1="420" y1="274" x2="420" y2="310" stroke="#0F6E56" stroke-width="1" fill="none"/>
  <line x1="420" y1="310" x2="450" y2="328" stroke="#0F6E56" stroke-width="1" marker-end="url(#arr-teal)" fill="none"/>
  <line x1="560" y1="274" x2="680" y2="328" stroke="#0F6E56" stroke-width="1" marker-end="url(#arr-teal)" fill="none"/>
  <line x1="279" y1="358" x2="621" y2="358" stroke="#185FA5" stroke-width="1" marker-end="url(#arr-blue)" fill="none"/>
  <text x="450" y="352" text-anchor="middle" font-size="10" fill="#185FA5">generate if missing</text>
  <line x1="167" y1="388" x2="160" y2="458" stroke="#185FA5" stroke-width="1" marker-end="url(#arr-blue)" fill="none"/>
  <line x1="265" y1="488" x2="345" y2="488" stroke="#854F0B" stroke-width="1" marker-end="url(#arr-amber)" fill="none"/>
  <line x1="555" y1="488" x2="635" y2="488" stroke="#854F0B" stroke-width="1" marker-end="url(#arr-amber)" fill="none"/>
  <line x1="740" y1="518" x2="740" y2="550" stroke="#854F0B" stroke-width="1" fill="none"/>
  <line x1="740" y1="550" x2="630" y2="562" stroke="#854F0B" stroke-width="1" marker-end="url(#arr-amber)" fill="none"/>
  <line x1="160" y1="518" x2="160" y2="550" stroke="#854F0B" stroke-width="1" fill="none"/>
  <line x1="160" y1="550" x2="270" y2="562" stroke="#854F0B" stroke-width="1" marker-end="url(#arr-amber)" fill="none"/>
  <line x1="450" y1="584" x2="450" y2="598" stroke="#854F0B" stroke-width="1" fill="none"/>
  <line x1="450" y1="598" x2="450" y2="1005" stroke="#3B6D11" stroke-width="1" stroke-dasharray="5 3" marker-end="url(#arr-green)" fill="none"/>
  <line x1="250" y1="274" x2="40" y2="274" stroke="#0F6E56" stroke-width="0.8" stroke-dasharray="4 3" fill="none"/>
  <line x1="40" y1="274" x2="40" y2="675" stroke="#993C1D" stroke-width="0.8" stroke-dasharray="4 3" fill="none"/>
  <line x1="40" y1="675" x2="55" y2="675" stroke="#993C1D" stroke-width="1" marker-end="url(#arr-coral)" fill="none"/>
  <line x1="275" y1="675" x2="340" y2="675" stroke="#993C1D" stroke-width="1" marker-end="url(#arr-coral)" fill="none"/>
  <line x1="165" y1="705" x2="165" y2="750" stroke="#888780" stroke-width="0.8" stroke-dasharray="4 3" fill="none"/>
  <line x1="165" y1="750" x2="625" y2="750" stroke="#888780" stroke-width="0.8" stroke-dasharray="4 3" fill="none"/>
  <line x1="625" y1="750" x2="625" y2="705" stroke="#888780" stroke-width="0.8" stroke-dasharray="4 3" marker-end="url(#arr-gray)" fill="none"/>
  <text x="390" y="745" text-anchor="middle" font-size="10" fill="#888780">optional scene gen</text>
  <line x1="450" y1="705" x2="450" y2="730" stroke="#993C1D" stroke-width="1" marker-end="url(#arr-coral)" fill="none"/>
  <line x1="450" y1="774" x2="450" y2="833" stroke="#993556" stroke-width="1" marker-end="url(#arr-pink)" fill="none"/>
  <line x1="210" y1="242" x2="20" y2="242" stroke="#0F6E56" stroke-width="0.8" stroke-dasharray="4 3" fill="none"/>
  <line x1="20" y1="242" x2="20" y2="863" stroke="#993556" stroke-width="0.8" stroke-dasharray="4 3" fill="none"/>
  <line x1="20" y1="863" x2="55" y2="863" stroke="#993556" stroke-width="1" marker-end="url(#arr-pink)" fill="none"/>
  <line x1="275" y1="863" x2="340" y2="863" stroke="#993556" stroke-width="1" marker-end="url(#arr-pink)" fill="none"/>
  <line x1="590" y1="893" x2="590" y2="952" stroke="#993556" stroke-width="1" fill="none"/>
  <line x1="590" y1="952" x2="630" y2="942" stroke="#993556" stroke-width="1" marker-end="url(#arr-pink)" fill="none"/>
  <line x1="165" y1="893" x2="165" y2="952" stroke="#993556" stroke-width="1" fill="none"/>
  <line x1="165" y1="952" x2="270" y2="942" stroke="#993556" stroke-width="1" marker-end="url(#arr-pink)" fill="none"/>
  <line x1="450" y1="964" x2="450" y2="1005" stroke="#3B6D11" stroke-width="1" marker-end="url(#arr-green)" fill="none"/>
  <line x1="450" y1="1065" x2="450" y2="1111" stroke="#888780" stroke-width="1" stroke-dasharray="5 3" marker-end="url(#arr-gray)" fill="none"/>
  <line x1="630" y1="1035" x2="800" y2="1035" stroke="#3B6D11" stroke-width="1" fill="none"/>
  <line x1="800" y1="1035" x2="800" y2="1250" stroke="#3B6D11" stroke-width="1" fill="none"/>
  <line x1="800" y1="1250" x2="690" y2="1250" stroke="#3B6D11" stroke-width="1" marker-end="url(#arr-green)" fill="none"/>
  <line x1="450" y1="1171" x2="450" y2="1218" stroke="#888780" stroke-width="1" stroke-dasharray="5 3" marker-end="url(#arr-gray)" fill="none"/>
  <line x1="690" y1="1250" x2="870" y2="1250" stroke="#0F6E56" stroke-width="1" fill="none"/>
  <line x1="870" y1="1250" x2="870" y2="117" stroke="#0F6E56" stroke-width="1" fill="none"/>
  <line x1="870" y1="117" x2="838" y2="117" stroke="#0F6E56" stroke-width="1" marker-end="url(#arr-teal)" fill="none"/>
  <text x="884" y="700" text-anchor="middle" font-size="10" fill="#0F6E56" transform="rotate(90 884 700)">done</text>

  <!-- Legend -->
  <rect x="30" y="1316" width="840" height="216" rx="10" fill="#F1EFE8" stroke="#B4B2A9" stroke-width="0.8"/>
  <text x="50" y="1342" font-size="12" font-weight="700" fill="#2C2C2A">Legend</text>
  <rect x="50" y="1356" width="14" height="14" rx="3" fill="#CECBF6" stroke="#534AB7" stroke-width="0.8"/><text x="72" y="1368" font-size="11" fill="#2C2C2A">Input layer</text>
  <rect x="220" y="1356" width="14" height="14" rx="3" fill="#9FE1CB" stroke="#0F6E56" stroke-width="0.8"/><text x="242" y="1368" font-size="11" fill="#2C2C2A">Orchestration / output</text>
  <rect x="430" y="1356" width="14" height="14" rx="3" fill="#B5D4F4" stroke="#185FA5" stroke-width="0.8"/><text x="452" y="1368" font-size="11" fill="#2C2C2A">Asset layer</text>
  <rect x="620" y="1356" width="14" height="14" rx="3" fill="#FAC775" stroke="#854F0B" stroke-width="0.8"/><text x="642" y="1368" font-size="11" fill="#2C2C2A">Image pipeline</text>
  <rect x="50" y="1388" width="14" height="14" rx="3" fill="#F5C4B3" stroke="#993C1D" stroke-width="0.8"/><text x="72" y="1400" font-size="11" fill="#2C2C2A">Video / scene engine</text>
  <rect x="220" y="1388" width="14" height="14" rx="3" fill="#F4C0D1" stroke="#993556" stroke-width="0.8"/><text x="242" y="1400" font-size="11" fill="#2C2C2A">Audio / TTS engine</text>
  <rect x="430" y="1388" width="14" height="14" rx="3" fill="#C0DD97" stroke="#3B6D11" stroke-width="0.8"/><text x="452" y="1400" font-size="11" fill="#2C2C2A">Compliance</text>
  <rect x="620" y="1388" width="14" height="14" rx="3" fill="#D3D1C7" stroke="#5F5E5A" stroke-width="0.8" stroke-dasharray="4 2"/><text x="642" y="1400" font-size="11" fill="#2C2C2A">Optional / future</text>
  <line x1="50" y1="1426" x2="90" y2="1426" stroke="#534AB7" stroke-width="1.5" fill="none"/><text x="98" y="1430" font-size="11" fill="#2C2C2A">Input / orchestration</text>
  <line x1="240" y1="1426" x2="280" y2="1426" stroke="#854F0B" stroke-width="1.5" fill="none"/><text x="288" y="1430" font-size="11" fill="#2C2C2A">Image pipeline</text>
  <line x1="430" y1="1426" x2="470" y2="1426" stroke="#993C1D" stroke-width="1.5" fill="none"/><text x="478" y="1430" font-size="11" fill="#2C2C2A">Video pipeline</text>
  <line x1="630" y1="1426" x2="670" y2="1426" stroke="#993556" stroke-width="1.5" fill="none"/><text x="678" y="1430" font-size="11" fill="#2C2C2A">Audio / TTS</text>
  <line x1="50" y1="1456" x2="90" y2="1456" stroke="#3B6D11" stroke-width="1.5" fill="none"/><text x="98" y="1460" font-size="11" fill="#2C2C2A">Compliance / output</text>
  <line x1="240" y1="1456" x2="280" y2="1456" stroke="#888780" stroke-width="1.2" stroke-dasharray="5 3" fill="none"/><text x="288" y="1460" font-size="11" fill="#2C2C2A">Optional / future</text>
  <line x1="430" y1="1456" x2="470" y2="1456" stroke="#0F6E56" stroke-width="1.5" fill="none"/><text x="478" y="1460" font-size="11" fill="#2C2C2A">Done / feedback loop</text>

  <text x="50" y="1510" font-size="10" fill="#888780">GenAI Social Campaign Automation POC — Architecture Diagram</text>
</svg>
